# xmcd
# Copyright (C) 1995-1998 Ti Kan
#
# Track frame offsets:
#       150
#       11550
#       33393
#       48121
#
# Disc length: 875 seconds
#
# Revision: 0
# Processed by: cddbd v1.5.2PL0 Copyright (c) Steve Scherf et al.
# Submitted via: CD-Import v1.0
#
DISCID=24036904
DTITLE=Death Of A Cheerleader - #1
DYEAR=09
DGENRE=
TTITLE0=The Matter
TTITLE1=There Is Still My Anger
TTITLE2=So Everyone Is In A Masquerade
TTITLE3=Walking Back To You
EXTD=
EXTT0=
EXTT1=
EXTT2=
EXTT3=
PLAYORDER=
